<?xml version="1.0" encoding="utf-8"?>
<!-- Generator: Adobe Illustrator 21.0.0, SVG Export Plug-In . SVG Version: 6.00 Build 0)  -->
<svg version="1.1" xmlns="http://www.w3.org/2000/svg" xmlns:xlink="http://www.w3.org/1999/xlink" x="0px" y="0px"
	 viewBox="0 0 1533.8 524.4" style="enable-background:new 0 0 1533.8 524.4;" xml:space="preserve">
<style type="text/css">
	.st0{fill:none;stroke:#DAEFFA;stroke-width:2.8346;stroke-linejoin:bevel;stroke-miterlimit:10;}
</style>
<g id="Слой_1">
</g>
<g id="Слой_2">
	<g>
		<g>
			<g>
				<rect x="1203.6" y="263.2" class="st0" width="16.4" height="16.4"/>
				<line class="st0" x1="1200.8" y1="259.6" x2="1222.6" y2="259.6"/>
				<line class="st0" x1="1211.7" y1="263.2" x2="1211.7" y2="279.6"/>
				<line class="st0" x1="1203.5" y1="271.4" x2="1219.9" y2="271.4"/>
			</g>
			<g>
				<rect x="1270.4" y="263.2" class="st0" width="16.4" height="16.4"/>
				<line class="st0" x1="1267.7" y1="259.6" x2="1289.4" y2="259.6"/>
				<line class="st0" x1="1278.5" y1="263.2" x2="1278.5" y2="279.6"/>
				<line class="st0" x1="1270.4" y1="271.4" x2="1286.7" y2="271.4"/>
			</g>
			<g>
				<rect x="1327.2" y="263.2" class="st0" width="16.4" height="16.4"/>
				<line class="st0" x1="1324.4" y1="259.6" x2="1346.1" y2="259.6"/>
				<line class="st0" x1="1335.3" y1="263.2" x2="1335.3" y2="279.6"/>
				<line class="st0" x1="1327.1" y1="271.4" x2="1343.5" y2="271.4"/>
			</g>
			<g>
				<rect x="1391.9" y="263.2" class="st0" width="16.4" height="16.4"/>
				<line class="st0" x1="1389.1" y1="259.6" x2="1410.9" y2="259.6"/>
				<line class="st0" x1="1400" y1="263.2" x2="1400" y2="279.6"/>
				<line class="st0" x1="1391.8" y1="271.4" x2="1408.2" y2="271.4"/>
			</g>
			<polygon class="st0" points="1400.1,238.1 1212.8,238.1 1152.8,291.6 1461,291.6 			"/>
			<line class="st0" x1="1212.8" y1="238.1" x2="1269.3" y2="291.6"/>
			<line class="st0" x1="1399.9" y1="238.1" x2="1343.5" y2="291.6"/>
			<polyline class="st0" points="1175.3,271.4 1175.3,227.4 1189.3,227.4 1189.3,259 			"/>
			<polyline class="st0" points="1179.7,227.4 1179.7,218.5 1184.9,218.5 1184.9,227.4 			"/>
			<polyline class="st0" points="1437.2,271.4 1437.2,227.4 1423.2,227.4 1423.2,259 			"/>
			<polyline class="st0" points="1427.7,227.4 1427.7,218.5 1432.8,218.5 1432.8,227.4 			"/>
			<polyline class="st0" points="1447,448.6 1447,402.1 1447,385.6 			"/>
			<polyline class="st0" points="1447,333.3 1447,297.4 1163.1,297.4 1163.1,402.1 1163.1,460 			"/>
			<rect x="1212.8" y="410.7" class="st0" width="184.5" height="10.3"/>
			<rect x="1232.5" y="402.1" class="st0" width="145.2" height="8.7"/>
			<rect x="1264" y="350.9" class="st0" width="82.1" height="51.1"/>
			<rect x="1332.4" y="356.7" class="st0" width="8.2" height="45.3"/>
			<rect x="1269.4" y="356.7" class="st0" width="8.2" height="45.3"/>
			<rect x="1287.8" y="356.7" class="st0" width="35.6" height="45.3"/>
			<rect x="1300" y="356.7" class="st0" width="11.1" height="45.3"/>
			
				<rect x="1305.6" y="356.7" transform="matrix(-1 -1.224647e-16 1.224647e-16 -1 2611.1926 758.8109)" class="st0" width="0" height="45.3"/>
			<rect x="1258.2" y="344.8" class="st0" width="93.8" height="6.2"/>
			<line class="st0" x1="1163.1" y1="402.1" x2="1447" y2="402.1"/>
			<rect x="1183.1" y="350.9" class="st0" width="15.7" height="51.1"/>
			<rect x="1183.1" y="377.3" class="st0" width="15.7" height="8.2"/>
			<rect x="1183.1" y="361.3" class="st0" width="15.7" height="8.2"/>
			<line class="st0" x1="1179.6" y1="350.9" x2="1202.1" y2="350.9"/>
			<line class="st0" x1="1190.9" y1="350.9" x2="1190.9" y2="385.6"/>
			<rect x="1209.3" y="350.9" class="st0" width="15.7" height="51.1"/>
			<rect x="1209.3" y="377.3" class="st0" width="15.7" height="8.2"/>
			<rect x="1209.3" y="361.3" class="st0" width="15.7" height="8.2"/>
			<line class="st0" x1="1205.8" y1="350.9" x2="1228.3" y2="350.9"/>
			<line class="st0" x1="1217.1" y1="350.9" x2="1217.1" y2="385.6"/>
			<rect x="1209.3" y="308.1" class="st0" width="15.7" height="26.3"/>
			<rect x="1209.3" y="318.5" class="st0" width="15.7" height="8.2"/>
			<line class="st0" x1="1205.8" y1="308.1" x2="1228.3" y2="308.1"/>
			<line class="st0" x1="1217.1" y1="308.1" x2="1217.1" y2="334.4"/>
			<rect x="1265.8" y="308.1" class="st0" width="15.7" height="26.3"/>
			<rect x="1265.8" y="318.5" class="st0" width="15.7" height="8.2"/>
			<line class="st0" x1="1262.3" y1="308.1" x2="1284.7" y2="308.1"/>
			<line class="st0" x1="1273.6" y1="308.1" x2="1273.6" y2="334.4"/>
			<rect x="1299.1" y="308.1" class="st0" width="15.7" height="26.3"/>
			<rect x="1299.1" y="318.5" class="st0" width="15.7" height="8.2"/>
			<line class="st0" x1="1295.6" y1="308.1" x2="1318.1" y2="308.1"/>
			<line class="st0" x1="1306.9" y1="308.1" x2="1306.9" y2="334.4"/>
			
				<rect x="1329.8" y="308.1" transform="matrix(-1 -4.460044e-11 4.460044e-11 -1 2675.1929 642.5186)" class="st0" width="15.7" height="26.3"/>
			
				<rect x="1329.8" y="318.5" transform="matrix(-1 -4.483270e-11 4.483270e-11 -1 2675.1929 645.2676)" class="st0" width="15.7" height="8.2"/>
			<line class="st0" x1="1348.9" y1="308.1" x2="1326.4" y2="308.1"/>
			<line class="st0" x1="1337.6" y1="308.1" x2="1337.6" y2="334.4"/>
			<rect x="1183.2" y="308.1" class="st0" width="15.7" height="26.3"/>
			<rect x="1183.2" y="318.5" class="st0" width="15.7" height="8.2"/>
			<line class="st0" x1="1179.7" y1="308.1" x2="1202.2" y2="308.1"/>
			<line class="st0" x1="1191" y1="308.1" x2="1191" y2="334.4"/>
			
				<rect x="1386.2" y="308.1" transform="matrix(-1 -4.541357e-11 4.541357e-11 -1 2788.0686 642.5186)" class="st0" width="15.7" height="26.3"/>
			
				<rect x="1386.2" y="318.5" transform="matrix(-1 -4.494905e-11 4.494905e-11 -1 2788.0686 645.2676)" class="st0" width="15.7" height="8.2"/>
			<line class="st0" x1="1405.4" y1="308.1" x2="1382.9" y2="308.1"/>
			<line class="st0" x1="1394" y1="308.1" x2="1394" y2="334.4"/>
			
				<rect x="1412.4" y="308.1" transform="matrix(-1 -4.541357e-11 4.541357e-11 -1 2840.3833 642.5186)" class="st0" width="15.7" height="26.3"/>
			
				<rect x="1412.4" y="318.5" transform="matrix(-1 -4.518131e-11 4.518131e-11 -1 2840.3833 645.2676)" class="st0" width="15.7" height="8.2"/>
			<line class="st0" x1="1431.5" y1="308.1" x2="1409" y2="308.1"/>
			<line class="st0" x1="1420.2" y1="308.1" x2="1420.2" y2="334.4"/>
			
				<rect x="1412.4" y="350.9" transform="matrix(-1 -4.494905e-11 4.494905e-11 -1 2840.55 752.9796)" class="st0" width="15.7" height="51.1"/>
			
				<rect x="1412.4" y="377.3" transform="matrix(-1 -4.506496e-11 4.506496e-11 -1 2840.55 762.8927)" class="st0" width="15.7" height="8.2"/>
			
				<rect x="1412.4" y="361.3" transform="matrix(-1 -4.506496e-11 4.506496e-11 -1 2840.55 730.904)" class="st0" width="15.7" height="8.2"/>
			<line class="st0" x1="1431.6" y1="350.9" x2="1409.1" y2="350.9"/>
			<line class="st0" x1="1420.3" y1="350.9" x2="1420.3" y2="385.6"/>
			
				<rect x="1386.2" y="350.9" transform="matrix(-1 -4.494905e-11 4.494905e-11 -1 2788.0686 752.9796)" class="st0" width="15.7" height="51.1"/>
			
				<rect x="1386.2" y="377.3" transform="matrix(-1 -4.506496e-11 4.506496e-11 -1 2788.0686 762.8927)" class="st0" width="15.7" height="8.2"/>
			
				<rect x="1386.2" y="361.3" transform="matrix(-1 -4.483270e-11 4.483270e-11 -1 2788.0686 730.904)" class="st0" width="15.7" height="8.2"/>
			<line class="st0" x1="1405.4" y1="350.9" x2="1382.9" y2="350.9"/>
			<line class="st0" x1="1394" y1="350.9" x2="1394" y2="385.6"/>
		</g>
		<path class="st0" d="M173.5,146.5c0,6.4-5.2,11.5-11.5,11.5H50.3c-5.2,0-9.5-4.2-9.5-9.5c0-5.2,4.2-9.5,9.5-9.5
			c1.2,0,2.3,0.2,3.4,0.6c-0.3-0.9-0.4-1.8-0.4-2.8c0-5.8,4.7-10.5,10.5-10.5c3.4,0,6.4,1.6,8.3,4.1c1.7-3.5,5.3-6,9.5-6
			c0.7,0,1.4,0.1,2.1,0.2c-0.4-1.4-0.7-2.9-0.7-4.5c0-8.6,7-15.5,15.5-15.5c6.5,0,12,4,14.4,9.6c1.9-2.1,4.6-3.3,7.7-3.3
			c5.1,0,9.3,3.6,10.3,8.4c1.7-1,3.6-1.5,5.7-1.5c6.4,0,11.5,5.2,11.5,11.5c0,4.2-2.3,7.9-5.7,9.9c3.6,0.6,6.6,3,8,6.3
			c0.5-5.9,5.4-10.5,11.5-10.5C168.3,134.9,173.5,140.1,173.5,146.5z"/>
		<path class="st0" d="M1317.5,57.7c0,8.6-6.9,15.5-15.5,15.5h-150.2c-7,0-12.7-5.7-12.7-12.7c0-7,5.7-12.7,12.7-12.7
			c1.6,0,3.1,0.3,4.5,0.8c-0.3-1.2-0.5-2.5-0.5-3.8c0-7.8,6.3-14.2,14.2-14.2c4.6,0,8.6,2.2,11.2,5.5c2.3-4.8,7.1-8.1,12.8-8.1
			c1,0,1.9,0.1,2.8,0.3c-0.6-1.9-0.9-3.9-0.9-6c0-11.5,9.4-20.9,20.9-20.9c8.7,0,16.2,5.3,19.3,12.9c2.6-2.8,6.2-4.5,10.3-4.5
			c6.8,0,12.5,4.8,13.9,11.3c2.3-1.3,4.9-2,7.7-2c8.6,0,15.5,6.9,15.5,15.5c0,5.7-3.1,10.7-7.7,13.4c4.9,0.8,8.9,4.1,10.7,8.5
			c0.7-7.9,7.3-14.2,15.4-14.2C1310.6,42.2,1317.5,49.2,1317.5,57.7z"/>
		<path class="st0" d="M754.6,255.6L754.6,255.6c0,3.8-3.1,6.9-6.9,6.9H611.5c-3.8,0-6.9-3.1-6.9-6.9v0c0-3.8,3.1-6.9,6.9-6.9h8.6
			c-0.5-1.7-0.7-3.4-0.7-5.2c0-10.5,8.5-19,19-19c1.3,0,2.5,0.1,3.7,0.4c2.2-3.6,5.4-6.4,9.2-8.2c0-0.5-0.1-0.9-0.1-1.4
			c0-10.1,8.2-18.4,18.4-18.4s18.4,8.2,18.4,18.4c0,3.1-0.8,6.1-2.2,8.7c3.7,0.7,7.1,2.5,9.9,5c3.1-2.5,7.1-3.9,11.4-3.9
			c10.2,0,18.5,8.3,18.5,18.5c0,1.8-0.3,3.6-0.8,5.2h22.9C751.5,248.8,754.6,251.9,754.6,255.6z"/>
		<g>
			<path class="st0" d="M874.8,374.5c-23.7-4.5-42-35-42-71.9c0-40,21.5-72.5,48.1-72.5s48.1,32.5,48.1,72.5
				c0,32.4-14.1,59.9-33.6,69.2l-7.5,2.1"/>
			<path class="st0" d="M856.2,319.8l19.5,19.1v95.7"/>
			<polyline class="st0" points="875.7,333 875.7,312.2 856.2,292.9 			"/>
			<polyline class="st0" points="865.3,277.5 875.7,288.1 875.7,307.4 			"/>
			<path class="st0" d="M906.3,319.8l-19.5,19.1v115.3"/>
			<polyline class="st0" points="886.8,333 886.8,312.2 906.3,292.9 			"/>
			<polyline class="st0" points="897.2,277.5 886.8,288.1 886.8,307.4 			"/>
			<line class="st0" x1="880.9" y1="286.8" x2="880.9" y2="267.5"/>
		</g>
		<g>
			<path class="st0" d="M801.2,395.6v57.8"/>
			<path class="st0" d="M812.2,395.6v69.2"/>
			<polygon class="st0" points="849.1,395.6 764.3,395.6 806.7,280.7 			"/>
			<polyline class="st0" points="769.9,380.3 772.6,377.6 779.8,384.8 787,377.6 794.2,384.8 801.4,377.6 808.6,384.8 815.8,377.6 
				823,384.8 830.2,377.6 837.4,384.8 843,379.2 			"/>
			<polyline class="st0" points="776.3,363.1 779.8,366.7 787,359.4 794.2,366.7 801.4,359.4 808.6,366.7 815.8,359.4 823,366.7 
				830.2,359.4 837.4,366.7 838.1,365.9 			"/>
			<polyline class="st0" points="782.7,345.5 787,341.2 794.2,348.5 801.4,341.2 808.6,348.5 815.8,341.2 823,348.5 829.3,342.1 			
				"/>
			<polyline class="st0" points="790,326 794.2,330.3 801.4,323 808.6,330.3 815.8,323 823,330.3 824.5,328.8 			"/>
			<polyline class="st0" points="795.6,310.7 801.4,304.9 808.6,312.1 815.7,305 			"/>
			<polyline class="st0" points="803.6,288.9 808.6,294 810.8,291.8 			"/>
		</g>
		<g>
			<path class="st0" d="M1085.7,267.8h-21.3c-3.8,0-6.9-3.1-6.9-6.9v-87.2c0-3.8,3.1-6.9,6.9-6.9h21.3c3.8,0,6.9,3.1,6.9,6.9v87.2
				C1092.5,264.7,1089.4,267.8,1085.7,267.8z"/>
			<line class="st0" x1="1075" y1="267.8" x2="1075" y2="333.3"/>
			<rect x="1068.9" y="333.3" class="st0" width="12.3" height="116.1"/>
			<line class="st0" x1="1058.9" y1="449.5" x2="1090.2" y2="449.5"/>
			<circle class="st0" cx="1075" cy="187.6" r="10.2"/>
			<circle class="st0" cx="1075" cy="217.3" r="10.2"/>
			<circle class="st0" cx="1075" cy="247.7" r="10.2"/>
			<line class="st0" x1="1106.5" y1="187.6" x2="1117.2" y2="187.6"/>
			<line class="st0" x1="1097.3" y1="165.3" x2="1104.8" y2="157.7"/>
			<line class="st0" x1="1075" y1="156.1" x2="1075" y2="145.4"/>
			<line class="st0" x1="1052.8" y1="165.3" x2="1045.2" y2="157.7"/>
			<line class="st0" x1="1043.5" y1="187.6" x2="1032.9" y2="187.6"/>
		</g>
		<g>
			<line class="st0" x1="1478.4" y1="360.4" x2="1478.4" y2="440.8"/>
			<path class="st0" d="M1502.6,346.9c2.3-3.8,3.5-8.2,3.5-13c0-14.1-11.4-25.5-25.5-25.5c-14.1,0-25.5,11.4-25.5,25.5
				c0,0.8,0,1.6,0.1,2.3c-9.7,3.7-16.5,13.1-16.5,24.1c0,14.3,11.6,25.8,25.8,25.8c1.9,0,3.7-0.2,5.5-0.6c4.7,6,12.1,9.9,20.3,9.9
				c14.3,0,25.8-11.6,25.8-25.8C1516.2,359.8,1510.7,351.3,1502.6,346.9z"/>
		</g>
		<g>
			<path class="st0" d="M951,484.2c0-6.3,5.1-11.4,11.4-11.4"/>
			<path class="st0" d="M951,484.2c0-6.3-5.1-11.4-11.4-11.4"/>
			<line class="st0" x1="951" y1="484.2" x2="951" y2="464.1"/>
		</g>
		<path class="st0" d="M57.2,470.1c0-6.3,5.1-11.4,11.4-11.4"/>
		<path class="st0" d="M57.2,470.1c0-6.3-5.1-11.4-11.4-11.4"/>
		<line class="st0" x1="57.2" y1="470.1" x2="57.2" y2="450"/>
		<path class="st0" d="M132.3,481.5c0-6.3,5.1-11.4,11.4-11.4"/>
		<path class="st0" d="M132.3,481.5c0-6.3-5.1-11.4-11.4-11.4"/>
		<line class="st0" x1="132.3" y1="481.5" x2="132.3" y2="461.4"/>
		<g>
			<path class="st0" d="M1138.1,446.6c0-6.3,5.1-11.4,11.4-11.4"/>
			<path class="st0" d="M1138.1,446.6c0-6.3-5.1-11.4-11.4-11.4"/>
			<line class="st0" x1="1138.1" y1="446.6" x2="1138.1" y2="426.4"/>
		</g>
		<g>
			<path class="st0" d="M1104,446.6c0-6.3,5.1-11.4,11.4-11.4"/>
			<path class="st0" d="M1104,446.6c0-6.3-5.1-11.4-11.4-11.4"/>
			<line class="st0" x1="1104" y1="446.6" x2="1104" y2="426.4"/>
		</g>
		<path class="st0" d="M877.4,456.1c0-0.2,0-0.4,0-0.7c0-6.5-5.3-11.9-11.9-11.9c-1.8,0-3.6,0.4-5.1,1.2c0-0.4,0-0.8,0-1.3
			c0-13.8-12-26.3-25.8-26.3c-8.3,0-16.8,4.9-22.5,13"/>
		<path class="st0" d="M1532.4,437.3c-1.1-13.4-13.4-17-18-17c-1.3,0-2.5,0.3-3.6,0.8c0-0.3,0-0.6,0-0.9c0-9.6-7.8-17.5-17.5-17.5
			c-3.8,0-7.4,1.2-10.2,3.3"/>
		<g>
			<polyline class="st0" points="1036,451.4 1036,374.8 1006.3,330.8 976.7,374.8 976.7,395.7 888.1,395.7 			"/>
			<polyline class="st0" points="1042.5,376 1006.3,322.4 970.2,376 			"/>
			<circle class="st0" cx="1006.3" cy="367.8" r="3.1"/>
		</g>
		<g>
			<path class="st0" d="M803.2,230.9c0-3.9,3.1-7,7-7"/>
			<path class="st0" d="M802.6,230.9c0-3.9-3.1-7-7-7"/>
		</g>
		<g>
			<path class="st0" d="M886,130.8c0-3.9,3.1-7,7-7"/>
			<path class="st0" d="M885.4,130.8c0-3.9-3.1-7-7-7"/>
		</g>
		<g>
			<polyline class="st0" points="286.4,418.7 286.4,309.4 190.1,277.3 93.8,309.4 93.8,460 			"/>
			<rect x="108.1" y="315.6" class="st0" width="45.6" height="23.7"/>
			<rect x="121.7" y="315.6" class="st0" width="18.6" height="23.7"/>
			<rect x="108.1" y="345.8" class="st0" width="45.6" height="23.7"/>
			<rect x="121.7" y="345.8" class="st0" width="18.6" height="23.7"/>
			<rect x="108.1" y="375.9" class="st0" width="45.6" height="23.7"/>
			<rect x="121.7" y="375.9" class="st0" width="18.6" height="23.7"/>
			<rect x="167.3" y="315.6" class="st0" width="45.6" height="23.7"/>
			<rect x="180.8" y="315.6" class="st0" width="18.6" height="23.7"/>
			<rect x="167.3" y="345.8" class="st0" width="45.6" height="23.7"/>
			<rect x="180.8" y="345.8" class="st0" width="18.6" height="23.7"/>
			<rect x="167.3" y="375.9" class="st0" width="45.6" height="23.7"/>
			<rect x="180.8" y="375.9" class="st0" width="18.6" height="23.7"/>
			<rect x="226.4" y="315.6" class="st0" width="45.6" height="23.7"/>
			<rect x="240" y="315.6" class="st0" width="18.6" height="23.7"/>
			<rect x="226.4" y="345.8" class="st0" width="45.6" height="23.7"/>
			<rect x="240" y="345.8" class="st0" width="18.6" height="23.7"/>
			<rect x="226.4" y="375.9" class="st0" width="45.6" height="23.7"/>
			<rect x="240" y="375.9" class="st0" width="18.6" height="23.7"/>
			<polyline class="st0" points="286.4,416.8 286.4,193.8 354.9,193.8 354.9,501.3 			"/>
			<rect x="276.3" y="174.1" class="st0" width="88.4" height="19.7"/>
			<rect x="301.1" y="212.3" class="st0" width="15.2" height="27"/>
			<rect x="301.1" y="251.2" class="st0" width="15.2" height="27"/>
			<rect x="301.1" y="290.2" class="st0" width="15.2" height="27"/>
			<rect x="301.1" y="329.2" class="st0" width="15.2" height="27"/>
			<rect x="301.1" y="368.2" class="st0" width="15.2" height="27"/>
			<rect x="354.9" y="285.5" class="st0" width="157.5" height="14.4"/>
			<polyline class="st0" points="354.9,416.8 354.9,299.9 502.2,299.9 502.2,394.7 			"/>
			<rect x="379.1" y="319.6" class="st0" width="37.7" height="97.2"/>
			<rect x="379.1" y="335.4" class="st0" width="37.7" height="65.6"/>
			<rect x="379.1" y="352.5" class="st0" width="37.7" height="31.3"/>
			<rect x="379.1" y="368.2" class="st0" width="37.7" height="0"/>
			<rect x="387.8" y="319.6" class="st0" width="20.3" height="97.2"/>
			
				<rect x="398" y="319.6" transform="matrix(-1 -1.224647e-16 1.224647e-16 -1 795.9634 736.3606)" class="st0" width="0" height="97.2"/>
			<path class="st0" d="M482.9,319.6v83.9c-2.9,1.5-5.9,3-8.7,4.6c-3.4,1.9-6.8,3.9-10.1,5.9c0,0,0,0,0,0c-1.5,0.9-3,1.8-4.4,2.8
				h-14.4v-97.2H482.9z"/>
			<rect x="445.1" y="335.4" class="st0" width="37.7" height="65.6"/>
			<rect x="445.1" y="352.5" class="st0" width="37.7" height="31.3"/>
			<rect x="445.1" y="368.2" class="st0" width="37.7" height="0"/>
			<path class="st0" d="M474.2,319.6v88.5c-3.4,1.9-6.8,3.9-10.1,5.9c0,0,0,0,0,0c-1.5,0.9-3,1.8-4.4,2.8h-5.7v-97.2H474.2z"/>
			<path class="st0" d="M464,319.6V414c0,0,0,0,0,0L464,319.6L464,319.6z"/>
			<polygon class="st0" points="457.8,112.5 471.8,112.5 478,285.5 451.6,285.5 			"/>
			<polygon class="st0" points="414.7,112.5 428.8,112.5 435,285.5 408.5,285.5 			"/>
		</g>
		<g>
			<line class="st0" x1="739.5" y1="523.1" x2="739.5" y2="431.4"/>
			<polyline class="st0" points="763.8,448.6 763.8,523 763.8,523.1 			"/>
			<polyline class="st0" points="788,471.8 788,523 788,523.1 			"/>
			<line class="st0" x1="716.2" y1="523.1" x2="716.2" y2="417.2"/>
			<line class="st0" x1="693" y1="522.9" x2="693" y2="406.6"/>
			<line class="st0" x1="670.8" y1="522.9" x2="670.8" y2="399.3"/>
			<line class="st0" x1="648.7" y1="522.9" x2="648.7" y2="394.2"/>
			<line class="st0" x1="626.5" y1="522.9" x2="626.5" y2="391.2"/>
			<line class="st0" x1="604.3" y1="522.9" x2="604.3" y2="390.1"/>
			<line class="st0" x1="582.2" y1="522.9" x2="582.2" y2="390.9"/>
			<line class="st0" x1="560" y1="522.9" x2="560" y2="393.6"/>
			<line class="st0" x1="537.9" y1="522.9" x2="537.9" y2="398.4"/>
			<line class="st0" x1="515.7" y1="522.9" x2="515.7" y2="405.3"/>
			<line class="st0" x1="493.5" y1="522.9" x2="493.5" y2="414.5"/>
			<line class="st0" x1="471.4" y1="522.9" x2="471.4" y2="426.4"/>
			<line class="st0" x1="449.2" y1="522.9" x2="449.2" y2="441.4"/>
			<line class="st0" x1="428.6" y1="522.9" x2="428.6" y2="460"/>
			<line class="st0" x1="408" y1="522.9" x2="408" y2="482.3"/>
			<path class="st0" d="M841.1,523h-16.8c-10-18.6-22.2-35.8-36.3-51.3c-7.6-8.3-15.7-16-24.2-23.2c-14.5-12.2-30.5-22.7-47.6-31.4
				c-7.5-3.8-15.3-7.3-23.2-10.3c-7.2-2.8-14.6-5.3-22.2-7.4c-7.3-2-14.7-3.8-22.2-5.2c-7.3-1.4-14.7-2.4-22.2-3.1
				c-7.3-0.7-14.7-1.1-22.2-1.1c-0.6,0-1.2,0-1.8,0c-6.9,0-13.7,0.3-20.4,0.8c-7.5,0.6-14.9,1.5-22.2,2.8
				c-7.5,1.3-14.9,2.9-22.2,4.8c-7.5,2-14.9,4.3-22.2,7c-7.6,2.8-15,5.9-22.2,9.4c-7.6,3.7-15,7.7-22.2,12.1
				c-7.7,4.7-15.1,9.8-22.2,15.3c-7.2,5.5-14.1,11.5-20.6,17.7v0c-7.3,7-14.2,14.4-20.6,22.3c-10.3,12.6-19.4,26.2-27.2,40.7H364
				c13.2-26.5,30.7-50.5,51.5-71.1c0.5-0.5,1-1,1.6-1.5c6.4-6.3,13.2-12.2,20.3-17.8c2.9-2.3,5.8-4.5,8.7-6.6
				c4.4-3.2,8.9-6.3,13.5-9.2c1.5-0.9,2.9-1.9,4.4-2.8c0,0,0,0,0,0c3.3-2,6.7-4,10.1-5.9c2.9-1.6,5.8-3.1,8.7-4.6
				c36-18.1,76.6-28.4,119.7-28.4C707.1,375.1,797.5,435.4,841.1,523z"/>
			<path class="st0" d="M824.3,523H380.8c7.7-14.5,16.9-28.1,27.2-40.7c6.4-7.8,13.3-15.3,20.6-22.3v0c6.5-6.3,13.4-12.2,20.6-17.7
				c7.1-5.5,14.5-10.6,22.2-15.3c7.2-4.4,14.5-8.4,22.2-12.1c7.2-3.5,14.6-6.6,22.2-9.4c7.2-2.7,14.6-5,22.2-7
				c7.3-1.9,14.7-3.5,22.2-4.8c7.3-1.2,14.7-2.2,22.2-2.8c6.7-0.5,13.5-0.8,20.4-0.8c0.6,0,1.2,0,1.8,0c7.5,0,14.9,0.4,22.2,1.1
				c7.5,0.7,14.9,1.7,22.2,3.1c7.5,1.4,14.9,3.1,22.2,5.2c7.5,2.1,14.9,4.6,22.2,7.4c7.9,3.1,15.7,6.5,23.2,10.3
				c17.1,8.7,33,19.2,47.6,31.4c8.6,7.2,16.7,14.9,24.2,23.2C802.1,487.2,814.4,504.4,824.3,523z"/>
			<path class="st0" d="M824.3,523H380.8c7.7-14.5,16.9-28.1,27.2-40.7c6.4-7.8,13.3-15.3,20.6-22.3v0c6.5-6.3,13.4-12.2,20.6-17.7
				c7.1-5.5,14.5-10.6,22.2-15.3c7.2-4.4,14.5-8.4,22.2-12.1c7.2-3.5,14.6-6.6,22.2-9.4c7.2-2.7,14.6-5,22.2-7
				c7.3-1.9,14.7-3.5,22.2-4.8c7.3-1.2,14.7-2.2,22.2-2.8c6.7-0.5,13.5-0.8,20.4-0.8c0.6,0,1.2,0,1.8,0c7.5,0,14.9,0.4,22.2,1.1
				c7.5,0.7,14.9,1.7,22.2,3.1c7.5,1.4,14.9,3.1,22.2,5.2c7.5,2.1,14.9,4.6,22.2,7.4c7.9,3.1,15.7,6.5,23.2,10.3
				c17.1,8.7,33,19.2,47.6,31.4c8.6,7.2,16.7,14.9,24.2,23.2C802.1,487.2,814.4,504.4,824.3,523z"/>
		</g>
		<path class="st0" d="M288.3,468.7c0,3.9-1.2,7.6-3.4,10.6c-3.3,4.7-8.9,7.8-15.1,7.8c-6.9,0-13-3.8-16.1-9.5
			c-5.3,6.8-13.5,11.1-22.7,11.1c-5.6,0-10.8-1.6-15.2-4.3c-1.8,8.3-9.2,14.5-18,14.5c-10.2,0-18.4-8.2-18.4-18.4
			c0-10.2,8.2-18.4,18.4-18.4c1.6,0,3.1,0.2,4.6,0.6c-0.1-0.9-0.1-1.7-0.1-2.6c0-15.8,12.8-28.7,28.7-28.7c6.7,0,12.9,2.3,17.8,6.2
			c5.1,4,8.8,9.7,10.2,16.3c3-2.2,6.8-3.5,10.8-3.5C280.1,450.3,288.3,458.5,288.3,468.7z"/>
		<path class="st0" d="M314.5,465.7c0,9.9-8,17.9-17.9,17.9c-4.4,0-8.5-1.6-11.6-4.3c2.1-3,3.4-6.6,3.4-10.6
			c0-10.2-8.3-18.4-18.4-18.4c-4,0-7.7,1.3-10.8,3.5c-1.5-6.5-5.1-12.2-10.2-16.3c3.1-8.3,11.1-14.1,20.5-14.1
			c12.1,0,21.8,9.8,21.8,21.8c0,1.2-0.1,2.4-0.3,3.5c1.8-0.6,3.7-0.9,5.6-0.9C306.5,447.8,314.5,455.8,314.5,465.7z"/>
		<rect x="901.5" y="407.9" class="st0" width="9.3" height="9.2"/>
		<rect x="917.2" y="407.9" class="st0" width="9.3" height="9.2"/>
		<rect x="932.8" y="407.9" class="st0" width="9.3" height="9.2"/>
		<rect x="948.5" y="407.9" class="st0" width="9.3" height="9.2"/>
		<rect x="964.2" y="407.9" class="st0" width="9.3" height="9.2"/>
		<path class="st0" d="M93.8,438.3c0,0-38.1-1.5-93.7,3"/>
	</g>
</g>
</svg>
